<mxfile host="65bd71144e">
    <diagram id="J7DB_MhR79BzkRk_Yor-" name="Page-1">
        <mxGraphModel dx="1726" dy="1083" grid="1" gridSize="10" guides="1" tooltips="1" connect="1" arrows="1" fold="1" page="1" pageScale="1" pageWidth="827" pageHeight="1169" math="0" shadow="0">
            <root>
                <mxCell id="0"/>
                <mxCell id="1" parent="0"/>
                <mxCell id="2" value="" style="endArrow=diamond;html=1;strokeColor=default;endFill=1;strokeWidth=2;" edge="1" parent="1">
                    <mxGeometry width="50" height="50" relative="1" as="geometry">
                        <mxPoint x="80" y="80" as="sourcePoint"/>
                        <mxPoint x="200" y="80" as="targetPoint"/>
                    </mxGeometry>
                </mxCell>
                <mxCell id="3" value="&lt;div style=&quot;&quot;&gt;&lt;span style=&quot;background-color: initial;&quot;&gt;&lt;b&gt;&lt;u&gt;Composition&lt;/u&gt;&lt;/b&gt;. Pil skal være på Ejeren, og enden på del-komponenten&lt;br&gt;Composition implies a relationship where the child cannot exist independent of the parent.&amp;nbsp;&lt;/span&gt;&lt;/div&gt;&lt;div style=&quot;&quot;&gt;&lt;span style=&quot;background-color: initial;&quot;&gt;Example: House (parent) and Room (child). Rooms don't exist separate to a House.&lt;br&gt;&lt;/span&gt;&lt;/div&gt;" style="text;html=1;align=left;verticalAlign=middle;resizable=0;points=[];autosize=1;strokeColor=none;fillColor=none;" vertex="1" parent="1">
                    <mxGeometry x="280" y="50" width="500" height="60" as="geometry"/>
                </mxCell>
                <mxCell id="4" value="" style="endArrow=diamond;html=1;strokeColor=default;endFill=0;strokeWidth=2;" edge="1" parent="1">
                    <mxGeometry width="50" height="50" relative="1" as="geometry">
                        <mxPoint x="80" y="160" as="sourcePoint"/>
                        <mxPoint x="200" y="160" as="targetPoint"/>
                    </mxGeometry>
                </mxCell>
                <mxCell id="5" value="&lt;div style=&quot;&quot;&gt;&lt;span style=&quot;background-color: initial;&quot;&gt;&lt;b&gt;&lt;u&gt;Aggregation.&lt;/u&gt;&lt;/b&gt; Pil skal være på Ejeren, og enden på del-komponenten.&lt;br&gt;Aggregation implies a relationship where the child can exist independently&amp;nbsp;&lt;/span&gt;&lt;/div&gt;&lt;div style=&quot;&quot;&gt;&lt;span style=&quot;background-color: initial;&quot;&gt;of the parent. Example: Class (parent) and Student (child).&amp;nbsp;&lt;/span&gt;&lt;/div&gt;&lt;div style=&quot;&quot;&gt;&lt;span style=&quot;background-color: initial;&quot;&gt;Delete the Class and the Students still exist.&lt;br&gt;&lt;/span&gt;&lt;/div&gt;" style="text;html=1;align=left;verticalAlign=middle;resizable=0;points=[];autosize=1;strokeColor=none;fillColor=none;" vertex="1" parent="1">
                    <mxGeometry x="280" y="140" width="420" height="70" as="geometry"/>
                </mxCell>
            </root>
        </mxGraphModel>
    </diagram>
</mxfile>